<?xml version="1.0" encoding="iso-8859-1"?>
<!-- Generator: Adobe Illustrator 19.0.0, SVG Export Plug-In . SVG Version: 6.00 Build 0)  -->
<svg version="1.1" id="Capa_1" xmlns="http://www.w3.org/2000/svg" xmlns:xlink="http://www.w3.org/1999/xlink" x="0px" y="0px"
	 viewBox="0 0 480 480" style="enable-background:new 0 0 480 480;" xml:space="preserve">
<path style="fill:#FDBD40;" d="M176.432,92.214c-0.008-35.466-28.765-64.209-64.231-64.201C76.747,28.021,48.008,56.76,48,92.214
	c0,14.984,64.216,151.784,64.216,151.784S176.432,107.198,176.432,92.214z"/>
<g>
	<circle style="fill:#E9686A;" cx="112.24" cy="92.238" r="35.024"/>
	<path style="fill:#E9686A;" d="M112,315.998c-8.837,0-16-7.163-16-16s7.163-16,16-16s16,7.163,16,16S120.837,315.998,112,315.998z"
		/>
</g>
<g>
	<circle style="fill:#FDBD40;" cx="32" cy="299.998" r="32"/>
	<circle style="fill:#FDBD40;" cx="192" cy="299.998" r="32"/>
	<circle style="fill:#FDBD40;" cx="272" cy="299.998" r="32"/>
</g>
<path style="fill:#FCF05A;" d="M328,211.998h144v160H328V211.998z"/>
<g>
	<path style="fill:#FDBD40;" d="M376,211.998h48v48h-48V211.998z"/>
	<path style="fill:#FDBD40;" d="M440,347.998h-16c-4.418,0-8-3.582-8-8s3.582-8,8-8h16c4.418,0,8,3.582,8,8
		S444.418,347.998,440,347.998z"/>
</g>
<path style="fill:#B11E48;" d="M160,451.998h-48c-4.418,0-8-3.582-8-8v-80c0-4.418,3.582-8,8-8c4.418,0,8,3.582,8,8v72h40
	c4.418,0,8,3.582,8,8S164.418,451.998,160,451.998z"/>
<g>
	<g>
		<path id="SVGCleanerId_0" style="fill:#E9686A;" d="M192,379.998h16v16h-16V379.998z"/>
	</g>
	<g>
		<path id="SVGCleanerId_1" style="fill:#E9686A;" d="M224,379.998h48v16h-48V379.998z"/>
	</g>
	<g>
		<path id="SVGCleanerId_2" style="fill:#E9686A;" d="M192,411.998h80v16h-80V411.998z"/>
	</g>
	<g>
		<path id="SVGCleanerId_3" style="fill:#E9686A;" d="M192,443.998h16v16h-16V443.998z"/>
	</g>
	<g>
		<path id="SVGCleanerId_4" style="fill:#E9686A;" d="M224,443.998h48v16h-48V443.998z"/>
	</g>
</g>
<path style="fill:#B11E48;" d="M272,251.998c-4.418,0-8-3.582-8-8v-136c0-4.418,3.582-8,8-8h48c4.418,0,8,3.582,8,8s-3.582,8-8,8
	h-40v128C280,248.416,276.418,251.998,272,251.998z"/>
<g>
	<path style="fill:#E9686A;" d="M352,155.998h16v16h-16V155.998z"/>
	<path style="fill:#E9686A;" d="M384,155.998h48v16h-48V155.998z"/>
	<path style="fill:#E9686A;" d="M352,123.998h80v16h-80V123.998z"/>
	<path style="fill:#E9686A;" d="M352,91.998h16v16h-16V91.998z"/>
	<path style="fill:#E9686A;" d="M384,91.998h48v16h-48V91.998z"/>
</g>
<path d="M155.24,92.214c0.004-23.766-19.258-43.036-43.024-43.04S69.18,68.432,69.176,92.198s19.258,43.036,43.024,43.04
	c0.005,0,0.011,0,0.016,0C135.967,135.211,155.214,115.964,155.24,92.214z M85.184,92.214c-0.004-14.929,12.095-27.036,27.024-27.04
	s27.036,12.095,27.04,27.024c0.004,14.929-12.095,27.036-27.024,27.04c-0.003,0-0.005,0-0.008,0
	C97.297,119.22,85.206,107.133,85.184,92.214z"/>
<path d="M112.216,251.998c3.104,0.003,5.929-1.79,7.248-4.6c15.24-32.48,64.968-139.648,64.968-155.2
	c-0.011-39.884-32.353-72.207-72.236-72.196C72.321,20.013,40.002,52.34,40,92.214c0,15.536,49.736,122.704,64.976,155.2
	C106.299,250.214,109.119,252,112.216,251.998z M112.216,35.998c31.006,0.04,56.141,25.146,56.216,56.152
	c-0.656,9.024-27.944,72-56.216,132.928C83.912,164.062,56.584,101.03,56,92.214C56.035,61.181,81.183,36.033,112.216,35.998
	L112.216,35.998z"/>
<path d="M0,299.998c0,17.673,14.327,32,32,32s32-14.327,32-32s-14.327-32-32-32S0,282.325,0,299.998z M48,299.998
	c0,8.837-7.163,16-16,16s-16-7.163-16-16s7.163-16,16-16S48,291.161,48,299.998z"/>
<circle cx="112" cy="299.998" r="16"/>
<path d="M192,331.998c17.673,0,32-14.327,32-32s-14.327-32-32-32s-32,14.327-32,32S174.327,331.998,192,331.998z M192,283.998
	c8.837,0,16,7.163,16,16s-7.163,16-16,16s-16-7.163-16-16S183.163,283.998,192,283.998z"/>
<path d="M304,299.998c0-17.673-14.327-32-32-32s-32,14.327-32,32s14.327,32,32,32S304,317.671,304,299.998z M256,299.998
	c0-8.837,7.163-16,16-16s16,7.163,16,16s-7.163,16-16,16S256,308.834,256,299.998z"/>
<path d="M472,203.998H328c-4.418,0-8,3.582-8,8v160c0,4.418,3.582,8,8,8h144c4.418,0,8-3.582,8-8v-160
	C480,207.58,476.418,203.998,472,203.998z M416,219.998v32h-32v-32H416z M464,363.998H336v-144h32v40c0,4.418,3.582,8,8,8h48
	c4.418,0,8-3.582,8-8v-40h32V363.998z"/>
<path d="M424,331.998c-4.418,0-8,3.582-8,8s3.582,8,8,8h16c4.418,0,8-3.582,8-8s-3.582-8-8-8H424z"/>
<path d="M112,451.998h48c4.418,0,8-3.582,8-8s-3.582-8-8-8h-40v-72c0-4.418-3.582-8-8-8c-4.418,0-8,3.582-8,8v80
	C104,448.416,107.582,451.998,112,451.998z"/>
<path id="SVGCleanerId_0_1_" d="M192,379.998h16v16h-16V379.998z"/>
<path id="SVGCleanerId_1_1_" d="M224,379.998h48v16h-48V379.998z"/>
<path id="SVGCleanerId_2_1_" d="M192,411.998h80v16h-80V411.998z"/>
<path id="SVGCleanerId_3_1_" d="M192,443.998h16v16h-16V443.998z"/>
<path id="SVGCleanerId_4_1_" d="M224,443.998h48v16h-48V443.998z"/>
<path d="M328,107.998c0-4.418-3.582-8-8-8h-48c-4.418,0-8,3.582-8,8v136c0,4.418,3.582,8,8,8s8-3.582,8-8v-128h40
	C324.418,115.998,328,112.416,328,107.998z"/>
<path d="M352,155.998h16v16h-16V155.998z"/>
<path d="M384,155.998h48v16h-48V155.998z"/>
<path d="M352,123.998h80v16h-80V123.998z"/>
<path d="M352,91.998h16v16h-16V91.998z"/>
<path d="M384,91.998h48v16h-48V91.998z"/>
<g>
</g>
<g>
</g>
<g>
</g>
<g>
</g>
<g>
</g>
<g>
</g>
<g>
</g>
<g>
</g>
<g>
</g>
<g>
</g>
<g>
</g>
<g>
</g>
<g>
</g>
<g>
</g>
<g>
</g>
</svg>
